<svg id="Layer_1" data-name="Layer 1" xmlns="http://www.w3.org/2000/svg" viewBox="0 0 400 400"><defs><style>.cls-1{fill:#0af;}</style></defs><path class="cls-1" d="M301.57,70.81a92.05,92.05,0,0,0-69.35,31.44L108.48,225.85,73.06,190.43a36.5,36.5,0,0,1-9.32-24.84,37.19,37.19,0,0,1,37.42-37.23,36.2,36.2,0,0,1,24.58,9.28c2.2,2,8.46,8.42,8.46,8.42l39.18-39.18L162.09,95.59h0A92.51,92.51,0,0,0,6.59,163a92.93,92.93,0,0,0,22.7,60.95l79.44,79.79,166-166a36.17,36.17,0,0,1,24.7-9.35,37.2,37.2,0,0,1,37.2,37.5,36.42,36.42,0,0,1-9.3,24.64L217,300.83a23.24,23.24,0,0,1-16.82,6.93,22.84,22.84,0,0,1-16.56-7.21l-8.31-8.24-39,39,8,7.89a78.37,78.37,0,0,0,56,23.59h0a77.59,77.59,0,0,0,55.73-23.53L371.1,224A92.46,92.46,0,0,0,301.57,70.81Z"/></svg>